ffmpeg version 3.4.8-0ubuntu0.2 Copyright (c) 2000-2020 the FFmpeg developers
  built with gcc 7 (Ubuntu 7.5.0-3ubuntu1~18.04)
  configuration: --prefix=/usr --extra-version=0ubuntu0.2 --toolchain=hardened --libdir=/usr/lib/x86_64-linux-gnu --incdir=/usr/include/x86_64-linux-gnu --enable-gpl --disable-stripping --enable-avresample --enable-avisynth --enable-gnutls --enable-ladspa --enable-libass --enable-libbluray --enable-libbs2b --enable-libcaca --enable-libcdio --enable-libflite --enable-libfontconfig --enable-libfreetype --enable-libfribidi --enable-libgme --enable-libgsm --enable-libmp3lame --enable-libmysofa --enable-libopenjpeg --enable-libopenmpt --enable-libopus --enable-libpulse --enable-librubberband --enable-librsvg --enable-libshine --enable-libsnappy --enable-libsoxr --enable-libspeex --enable-libssh --enable-libtheora --enable-libtwolame --enable-libvorbis --enable-libvpx --enable-libwavpack --enable-libwebp --enable-libx265 --enable-libxml2 --enable-libxvid --enable-libzmq --enable-libzvbi --enable-omx --enable-openal --enable-opengl --enable-sdl2 --enable-libdc1394 --enable-libdrm --enable-libiec61883 --enable-chromaprint --enable-frei0r --enable-libopencv --enable-libx264 --enable-shared
  libavutil      55. 78.100 / 55. 78.100
  libavcodec     57.107.100 / 57.107.100
  libavformat    57. 83.100 / 57. 83.100
  libavdevice    57. 10.100 / 57. 10.100
  libavfilter     6.107.100 /  6.107.100
  libavresample   3.  7.  0 /  3.  7.  0
  libswscale      4.  8.100 /  4.  8.100
  libswresample   2.  9.100 /  2.  9.100
  libpostproc    54.  7.100 / 54.  7.100
[rawvideo @ 0x55ba066e8a20] Estimating duration from bitrate, this may be inaccurate
Input #0, rawvideo, from '../../SVC-Encoder-20220109T061506Z-001/SVC-Encoder/Dataset/RollerCoaster/ERP_8x8/tile_yuv/Tile_47_480x240.yuv':
  Duration: 00:00:10.00, start: 0.000000, bitrate: 41472 kb/s
    Stream #0:0: Video: rawvideo (I420 / 0x30323449), yuv420p, 480x240, 41472 kb/s, 30 tbr, 30 tbn, 30 tbc
Stream mapping:
  Stream #0:0 -> #0:0 (rawvideo (native) -> h264 (libx264))
Press [q] to stop, [?] for help
[libx264 @ 0x55ba066f5c60] using cpu capabilities: MMX2 SSE2Fast LZCNT SSSE3 SSE4.2 AVX
[libx264 @ 0x55ba066f5c60] profile High, level 2.1
Output #0, rawvideo, to 'RollerCoaster_Tile_47_480x240_x264_QP_24.h264':
  Metadata:
    encoder         : Lavf57.83.100
    Stream #0:0: Video: h264 (libx264), yuv420p, 480x240, q=-1--1, 30 fps, 30 tbn, 30 tbc
    Metadata:
      encoder         : Lavc57.107.100 libx264
    Side data:
      cpb: bitrate max/min/avg: 0/0/0 buffer size: 0 vbv_delay: -1
frame=  130 fps=0.0 q=30.0 PSNR=Y:nan U:nan V:nan *:nan size=     147kB time=00:00:02.90 bitrate= 415.2kbits/s speed=5.78x    frame=  242 fps=241 q=30.0 PSNR=Y:nan U:nan V:nan *:nan size=     256kB time=00:00:06.63 bitrate= 316.2kbits/s speed=6.62x    frame=  300 fps=212 q=30.0 LPSNR=Y:inf U:inf V:inf *:inf size=     476kB time=00:00:09.93 bitrate= 392.8kbits/s speed=7.02x    
video:476kB audio:0kB subtitle:0kB other streams:0kB global headers:0kB muxing overhead: 0.000000%
[libx264 @ 0x55ba066f5c60] frame I:2     Avg QP:21.72  size: 18509  PSNR Mean Y:44.66 U:49.01 V:49.30 Avg:45.71 Global:45.66
[libx264 @ 0x55ba066f5c60] frame P:76    Avg QP:23.31  size:  3978  PSNR Mean Y:42.11 U:48.45 V:48.75 Avg:43.40 Global:43.35
[libx264 @ 0x55ba066f5c60] frame B:222   Avg QP:29.46  size:   668  PSNR Mean Y:41.37 U:48.23 V:48.49 Avg:42.71 Global:42.65
[libx264 @ 0x55ba066f5c60] consecutive B-frames:  0.7%  1.3%  2.0% 96.0%
[libx264 @ 0x55ba066f5c60] mb I  I16..4:  8.8% 59.4% 31.8%
[libx264 @ 0x55ba066f5c60] mb P  I16..4:  0.6%  1.4%  0.7%  P16..4: 40.9% 24.8% 13.4%  0.0%  0.0%    skip:18.2%
[libx264 @ 0x55ba066f5c60] mb B  I16..4:  0.0%  0.1%  0.1%  B16..8: 43.8%  8.9%  1.4%  direct: 0.6%  skip:45.0%  L0:42.3% L1:48.6% BI: 9.1%
[libx264 @ 0x55ba066f5c60] 8x8 transform intra:54.8% inter:68.3%
[libx264 @ 0x55ba066f5c60] coded y,uvDC,uvAC intra: 76.5% 83.7% 44.7% inter: 14.2% 8.8% 0.1%
[libx264 @ 0x55ba066f5c60] i16 v,h,dc,p: 25% 31% 24% 21%
[libx264 @ 0x55ba066f5c60] i8 v,h,dc,ddl,ddr,vr,hd,vl,hu: 10% 22% 14%  7%  6%  7% 10%  8% 15%
[libx264 @ 0x55ba066f5c60] i4 v,h,dc,ddl,ddr,vr,hd,vl,hu: 15% 22% 15%  6%  8%  7% 13%  7%  8%
[libx264 @ 0x55ba066f5c60] i8c dc,h,v,p: 44% 22% 20% 15%
[libx264 @ 0x55ba066f5c60] Weighted P-Frames: Y:0.0% UV:0.0%
[libx264 @ 0x55ba066f5c60] ref P L0: 55.3% 18.0% 20.2%  6.5%
[libx264 @ 0x55ba066f5c60] ref B L0: 84.5% 12.4%  3.1%
[libx264 @ 0x55ba066f5c60] ref B L1: 91.8%  8.2%
[libx264 @ 0x55ba066f5c60] PSNR Mean Y:41.576 U:48.290 V:48.559 Avg:42.905 Global:42.835 kb/s:390.19
